<?xml version="1.0" standalone="no"?>
<!DOCTYPE svg PUBLIC "-//W3C//DTD SVG 20010904//EN"
 "http://www.w3.org/TR/2001/REC-SVG-20010904/DTD/svg10.dtd">
<svg version="1.0" xmlns="http://www.w3.org/2000/svg"
 width="225.000000pt" height="225.000000pt" viewBox="0 0 225.000000 225.000000"
 preserveAspectRatio="xMidYMid meet">
<metadata>
Created by potrace 1.10, written by Peter Selinger 2001-2011
</metadata>
<g transform="translate(0.000000,225.000000) scale(0.100000,-0.100000)"
fill="#000000" stroke="none">
<path d="M1011 1555 c-14 -52 -14 -64 3 -96 l14 -27 -49 -5 c-96 -12 -198 -71
-254 -147 -19 -26 -35 -50 -35 -53 0 -3 19 2 43 12 23 10 57 21 76 25 l35 6
-46 -43 c-63 -61 -99 -140 -105 -236 l-4 -76 24 58 c14 31 41 77 61 102 36 43
37 55 4 50 -14 -3 -11 6 14 41 17 24 36 44 41 44 6 0 7 3 4 7 -4 3 -2 12 4 19
15 18 2 52 -22 59 -10 4 -17 11 -13 16 14 23 88 60 145 73 77 18 102 40 97 83
l-4 32 47 -26 c26 -14 60 -39 76 -56 15 -16 23 -27 17 -24 -7 4 -10 -4 -9 -21
3 -38 2 -38 30 -50 35 -16 60 -15 75 3 11 13 7 15 -24 15 -33 0 -66 17 -66 34
0 13 59 5 81 -12 45 -33 114 -59 180 -68 51 -7 51 -7 45 -37 -10 -50 -41 -75
-99 -80 -29 -3 -61 -6 -72 -8 -27 -5 -64 -41 -55 -54 10 -16 10 -58 -1 -71
-20 -25 33 -84 75 -84 17 0 16 3 -8 25 -31 28 -35 78 -9 114 l16 24 -34 -6
c-32 -6 -33 -6 -15 8 13 10 43 15 85 15 77 0 126 24 141 68 6 15 17 39 25 54
29 51 21 63 -43 64 -70 1 -172 30 -172 48 0 24 -40 49 -92 57 -32 5 -58 16
-68 28 -8 10 -39 33 -68 51 -29 18 -59 44 -66 58 l-14 26 -11 -39z"/>
<path d="M802 1071 c-43 -99 -22 -223 51 -298 42 -44 50 -41 27 10 -21 45 -27
151 -10 162 6 4 10 -9 10 -32 1 -83 71 -176 164 -219 29 -13 82 -26 121 -29
l70 -7 -30 20 c-69 45 -98 105 -93 198 2 35 4 64 5 64 1 0 16 -20 32 -44 38
-55 99 -86 170 -86 l52 0 -36 31 c-44 39 -65 78 -74 138 l-6 45 -17 -25 c-15
-24 -15 -29 2 -80 10 -29 17 -55 15 -57 -7 -7 -51 22 -83 54 -40 41 -57 43
-75 7 -25 -48 -27 -79 -12 -137 18 -70 18 -66 -1 -66 -37 0 -144 88 -136 113
1 5 -2 6 -7 2 -6 -3 -15 13 -21 37 -6 24 -20 54 -31 68 -18 23 -20 24 -33 8
-35 -47 -51 -5 -33 85 18 84 7 104 -21 38z"/>
</g>
</svg>
